<mxfile host="Electron" modified="2024-01-11T12:33:32.115Z" agent="Mozilla/5.0 (Windows NT 10.0; Win64; x64) AppleWebKit/537.36 (KHTML, like Gecko) draw.io/22.1.2 Chrome/114.0.5735.289 Electron/25.9.4 Safari/537.36" etag="adlKT-yze6BMPlMClWDy" version="22.1.2" type="device">
  <diagram name="Pagina-1" id="KrAMYKN802Sa1sQlcGRf">
    <mxGraphModel dx="809" dy="1636" grid="1" gridSize="10" guides="1" tooltips="1" connect="1" arrows="1" fold="1" page="1" pageScale="1" pageWidth="827" pageHeight="1169" math="0" shadow="0">
      <root>
        <mxCell id="0" />
        <mxCell id="1" parent="0" />
        <mxCell id="X-2cT9AtNMiIcICBBnYA-75" value="" style="rounded=0;whiteSpace=wrap;html=1;strokeColor=none;" parent="1" vertex="1">
          <mxGeometry x="200" y="-450" width="640" height="580" as="geometry" />
        </mxCell>
        <mxCell id="X-2cT9AtNMiIcICBBnYA-1" value="" style="endArrow=classic;html=1;rounded=0;" parent="1" edge="1">
          <mxGeometry width="50" height="50" relative="1" as="geometry">
            <mxPoint x="320" y="360" as="sourcePoint" />
            <mxPoint x="730" y="360" as="targetPoint" />
          </mxGeometry>
        </mxCell>
        <mxCell id="X-2cT9AtNMiIcICBBnYA-3" value="1" style="rhombus;whiteSpace=wrap;html=1;" parent="1" vertex="1">
          <mxGeometry x="340" y="310" width="40" height="40" as="geometry" />
        </mxCell>
        <mxCell id="X-2cT9AtNMiIcICBBnYA-4" value="2" style="rhombus;whiteSpace=wrap;html=1;" parent="1" vertex="1">
          <mxGeometry x="420" y="310" width="40" height="40" as="geometry" />
        </mxCell>
        <mxCell id="X-2cT9AtNMiIcICBBnYA-5" value="3" style="rhombus;whiteSpace=wrap;html=1;" parent="1" vertex="1">
          <mxGeometry x="500" y="310" width="40" height="40" as="geometry" />
        </mxCell>
        <mxCell id="X-2cT9AtNMiIcICBBnYA-8" value="" style="endArrow=classic;html=1;rounded=0;" parent="1" edge="1">
          <mxGeometry width="50" height="50" relative="1" as="geometry">
            <mxPoint x="320" y="480" as="sourcePoint" />
            <mxPoint x="730" y="480" as="targetPoint" />
          </mxGeometry>
        </mxCell>
        <mxCell id="X-2cT9AtNMiIcICBBnYA-26" value="" style="endArrow=none;html=1;rounded=0;" parent="1" edge="1">
          <mxGeometry width="50" height="50" relative="1" as="geometry">
            <mxPoint x="359.9" y="364" as="sourcePoint" />
            <mxPoint x="359.9" y="356" as="targetPoint" />
          </mxGeometry>
        </mxCell>
        <mxCell id="X-2cT9AtNMiIcICBBnYA-27" value="" style="endArrow=none;html=1;rounded=0;" parent="1" edge="1">
          <mxGeometry width="50" height="50" relative="1" as="geometry">
            <mxPoint x="439.9" y="364" as="sourcePoint" />
            <mxPoint x="439.9" y="356" as="targetPoint" />
          </mxGeometry>
        </mxCell>
        <mxCell id="X-2cT9AtNMiIcICBBnYA-28" value="" style="endArrow=none;html=1;rounded=0;" parent="1" edge="1">
          <mxGeometry width="50" height="50" relative="1" as="geometry">
            <mxPoint x="519.9" y="364" as="sourcePoint" />
            <mxPoint x="519.9" y="356" as="targetPoint" />
          </mxGeometry>
        </mxCell>
        <mxCell id="X-2cT9AtNMiIcICBBnYA-29" value="" style="endArrow=none;html=1;rounded=0;" parent="1" edge="1">
          <mxGeometry width="50" height="50" relative="1" as="geometry">
            <mxPoint x="599.9" y="364" as="sourcePoint" />
            <mxPoint x="599.9" y="356" as="targetPoint" />
          </mxGeometry>
        </mxCell>
        <mxCell id="X-2cT9AtNMiIcICBBnYA-30" value="" style="endArrow=none;html=1;rounded=0;" parent="1" edge="1">
          <mxGeometry width="50" height="50" relative="1" as="geometry">
            <mxPoint x="679.9" y="364" as="sourcePoint" />
            <mxPoint x="679.9" y="356" as="targetPoint" />
          </mxGeometry>
        </mxCell>
        <mxCell id="X-2cT9AtNMiIcICBBnYA-31" value="" style="endArrow=none;html=1;rounded=0;" parent="1" edge="1">
          <mxGeometry width="50" height="50" relative="1" as="geometry">
            <mxPoint x="359.92999999999995" y="484" as="sourcePoint" />
            <mxPoint x="359.92999999999995" y="476" as="targetPoint" />
          </mxGeometry>
        </mxCell>
        <mxCell id="X-2cT9AtNMiIcICBBnYA-32" value="" style="endArrow=none;html=1;rounded=0;" parent="1" edge="1">
          <mxGeometry width="50" height="50" relative="1" as="geometry">
            <mxPoint x="439.92999999999995" y="484" as="sourcePoint" />
            <mxPoint x="439.92999999999995" y="476" as="targetPoint" />
          </mxGeometry>
        </mxCell>
        <mxCell id="X-2cT9AtNMiIcICBBnYA-33" value="" style="endArrow=none;html=1;rounded=0;" parent="1" edge="1">
          <mxGeometry width="50" height="50" relative="1" as="geometry">
            <mxPoint x="519.93" y="484" as="sourcePoint" />
            <mxPoint x="519.93" y="476" as="targetPoint" />
          </mxGeometry>
        </mxCell>
        <mxCell id="X-2cT9AtNMiIcICBBnYA-34" value="" style="endArrow=none;html=1;rounded=0;" parent="1" edge="1">
          <mxGeometry width="50" height="50" relative="1" as="geometry">
            <mxPoint x="599.93" y="484" as="sourcePoint" />
            <mxPoint x="599.93" y="476" as="targetPoint" />
          </mxGeometry>
        </mxCell>
        <mxCell id="X-2cT9AtNMiIcICBBnYA-35" value="" style="endArrow=none;html=1;rounded=0;" parent="1" edge="1">
          <mxGeometry width="50" height="50" relative="1" as="geometry">
            <mxPoint x="679.93" y="484" as="sourcePoint" />
            <mxPoint x="679.93" y="476" as="targetPoint" />
          </mxGeometry>
        </mxCell>
        <mxCell id="X-2cT9AtNMiIcICBBnYA-36" value="time" style="text;html=1;align=center;verticalAlign=middle;resizable=0;points=[];autosize=1;strokeColor=none;fillColor=none;" parent="1" vertex="1">
          <mxGeometry x="725" y="345" width="50" height="30" as="geometry" />
        </mxCell>
        <mxCell id="X-2cT9AtNMiIcICBBnYA-37" value="time" style="text;html=1;align=center;verticalAlign=middle;resizable=0;points=[];autosize=1;strokeColor=none;fillColor=none;" parent="1" vertex="1">
          <mxGeometry x="725" y="465" width="50" height="30" as="geometry" />
        </mxCell>
        <mxCell id="X-2cT9AtNMiIcICBBnYA-38" value="" style="endArrow=classic;html=1;rounded=0;" parent="1" edge="1">
          <mxGeometry width="50" height="50" relative="1" as="geometry">
            <mxPoint x="320" y="600" as="sourcePoint" />
            <mxPoint x="730" y="600" as="targetPoint" />
          </mxGeometry>
        </mxCell>
        <mxCell id="X-2cT9AtNMiIcICBBnYA-54" value="" style="endArrow=none;html=1;rounded=0;" parent="1" edge="1">
          <mxGeometry width="50" height="50" relative="1" as="geometry">
            <mxPoint x="359.92999999999995" y="604" as="sourcePoint" />
            <mxPoint x="359.92999999999995" y="596" as="targetPoint" />
          </mxGeometry>
        </mxCell>
        <mxCell id="X-2cT9AtNMiIcICBBnYA-55" value="" style="endArrow=none;html=1;rounded=0;" parent="1" edge="1">
          <mxGeometry width="50" height="50" relative="1" as="geometry">
            <mxPoint x="439.92999999999995" y="604" as="sourcePoint" />
            <mxPoint x="439.92999999999995" y="596" as="targetPoint" />
          </mxGeometry>
        </mxCell>
        <mxCell id="X-2cT9AtNMiIcICBBnYA-56" value="" style="endArrow=none;html=1;rounded=0;" parent="1" edge="1">
          <mxGeometry width="50" height="50" relative="1" as="geometry">
            <mxPoint x="519.93" y="604" as="sourcePoint" />
            <mxPoint x="519.93" y="596" as="targetPoint" />
          </mxGeometry>
        </mxCell>
        <mxCell id="X-2cT9AtNMiIcICBBnYA-57" value="" style="endArrow=none;html=1;rounded=0;" parent="1" edge="1">
          <mxGeometry width="50" height="50" relative="1" as="geometry">
            <mxPoint x="599.93" y="604" as="sourcePoint" />
            <mxPoint x="599.93" y="596" as="targetPoint" />
          </mxGeometry>
        </mxCell>
        <mxCell id="X-2cT9AtNMiIcICBBnYA-58" value="" style="endArrow=none;html=1;rounded=0;" parent="1" edge="1">
          <mxGeometry width="50" height="50" relative="1" as="geometry">
            <mxPoint x="679.93" y="604" as="sourcePoint" />
            <mxPoint x="679.93" y="596" as="targetPoint" />
          </mxGeometry>
        </mxCell>
        <mxCell id="X-2cT9AtNMiIcICBBnYA-59" value="time" style="text;html=1;align=center;verticalAlign=middle;resizable=0;points=[];autosize=1;strokeColor=none;fillColor=none;" parent="1" vertex="1">
          <mxGeometry x="725" y="585" width="50" height="30" as="geometry" />
        </mxCell>
        <mxCell id="X-2cT9AtNMiIcICBBnYA-72" value="s1" style="text;html=1;align=center;verticalAlign=middle;resizable=0;points=[];autosize=1;strokeColor=none;fillColor=none;" parent="1" vertex="1">
          <mxGeometry x="285" y="345" width="40" height="30" as="geometry" />
        </mxCell>
        <mxCell id="X-2cT9AtNMiIcICBBnYA-73" value="s2" style="text;html=1;align=center;verticalAlign=middle;resizable=0;points=[];autosize=1;strokeColor=none;fillColor=none;" parent="1" vertex="1">
          <mxGeometry x="283" y="465" width="40" height="30" as="geometry" />
        </mxCell>
        <mxCell id="X-2cT9AtNMiIcICBBnYA-74" value="and(s1, s2)" style="text;html=1;align=center;verticalAlign=middle;resizable=0;points=[];autosize=1;strokeColor=none;fillColor=none;" parent="1" vertex="1">
          <mxGeometry x="240" y="585" width="80" height="30" as="geometry" />
        </mxCell>
        <mxCell id="mXGkWMOnBB6dUqLy7p-i-4" value="a" style="rounded=0;whiteSpace=wrap;html=1;" vertex="1" parent="1">
          <mxGeometry x="505" y="440" width="30" height="30" as="geometry" />
        </mxCell>
        <mxCell id="mXGkWMOnBB6dUqLy7p-i-5" value="b" style="rounded=0;whiteSpace=wrap;html=1;" vertex="1" parent="1">
          <mxGeometry x="585" y="440" width="30" height="30" as="geometry" />
        </mxCell>
        <mxCell id="mXGkWMOnBB6dUqLy7p-i-6" value="c" style="rounded=0;whiteSpace=wrap;html=1;" vertex="1" parent="1">
          <mxGeometry x="665" y="440" width="30" height="30" as="geometry" />
        </mxCell>
      </root>
    </mxGraphModel>
  </diagram>
</mxfile>
